PathFileType	4	(X/Y/Z)	C:/Users/opensim2020/Desktop/walking_exp_matlab/subject03_walking13_straight_02.trc																																																																																																																																								
DataRate	CameraRate	NumFrames	NumMarkers	Units	OrigDataRate	OrigDataStartFrame	OrigNumFrames																																																																																																																																				
100	100	8	46	mm	100	1127	193																																																																																																																																				
Frame#	Time	LFHD			RFHD			LBHD			RBHD			C7			T10			CLAV			STRN			RBAK			LSHO			LUPA			LELB			LFRM			LWRA			LWRB			LFIN			RSHO			RUPA			RELB			RFRM			RWRA			RWRB			RFIN			LASI			RASI			LPSI			RPSI			LTHI			LKNE			LTIB			LANK			LHEE			LTOE			RTHI			RKNE			RTIB			RANK			RHEE			RTOE			*39			*40			*41			*42			*43			*44			*45		
		X1	Y1	Z1	X2	Y2	Z2	X3	Y3	Z3	X4	Y4	Z4	X5	Y5	Z5	X6	Y6	Z6	X7	Y7	Z7	X8	Y8	Z8	X9	Y9	Z9	X10	Y10	Z10	X11	Y11	Z11	X12	Y12	Z12	X13	Y13	Z13	X14	Y14	Z14	X15	Y15	Z15	X16	Y16	Z16	X17	Y17	Z17	X18	Y18	Z18	X19	Y19	Z19	X20	Y20	Z20	X21	Y21	Z21	X22	Y22	Z22	X23	Y23	Z23	X24	Y24	Z24	X25	Y25	Z25	X26	Y26	Z26	X27	Y27	Z27	X28	Y28	Z28	X29	Y29	Z29	X30	Y30	Z30	X31	Y31	Z31	X32	Y32	Z32	X33	Y33	Z33	X34	Y34	Z34	X35	Y35	Z35	X36	Y36	Z36	X37	Y37	Z37	X38	Y38	Z38	X39	Y39	Z39	X40	Y40	Z40	X41	Y41	Z41	X42	Y42	Z42	X43	Y43	Z43	X44	Y44	Z44	X45	Y45	Z45	X46	Y46	Z46
																																																																																																																																											
49	0.48	-728.29071	1624.30286	-1462.56702	-751.27435	1626.802	-1331.81152	-854.48425	1579.05481	-1480.81897	-872.68121	1581.40503	-1351.72192	-891.4729	1417.15479	-1432.22363	-919.5921	1103.57434	-1433.94592	-771.23035	1342.60596	-1409.09509	-723.99384	1179.09717	-1407.18176	-957.52063	1238.57361	-1347.29517	-788.46045	1378.28137	-1570.85388	-794.45764	1180.55518	-1643.50134	-799.28741	1057.22229	-1656.12	-795.50629	926.96814	-1658.89978	-807.81348	806.63312	-1633.77905	-813.18048	817.72382	-1689.40698	-814.00128	733.53455	-1684.1803	-848.37238	1365.87097	-1260.72583	-846.08496	1142.23999	-1191.7699	-822.13885	1031.46753	-1179.93213	-792.47791	897.82703	-1178.7572	-748.63464	808.01837	-1213.23706	-783.97992	797.51099	-1173.08972	-751.05109	730.45703	-1183.24756	-736.51337	951.05402	-1530.81787	-774.40973	936.42035	-1296.56897	-904.33545	968.59973	-1505.51636	-925.16003	963.85626	-1357.60474	-761.99872	646.7851	-1582.38403	-749.51147	472.56525	-1537.47717	-807.28027	280.02979	-1554.3363	-847.91779	72.90968	-1523.23145	-895.83337	36.64995	-1493.93213	-703.14532	35.93969	-1479.02441	-781.8432	636.04059	-1264.25598	-717.59949	467.7518	-1282.98596	-852.30121	337.12402	-1301.11816	-1003.6687	192.77666	-1363.85168	-1049.85852	199.14934	-1423.50562	-935.50549	68.67308	-1368.67273	NaN	NaN	NaN	-819.36719	1684.97961	-1427.16248	NaN	NaN	NaN	NaN	NaN	NaN	NaN	NaN	NaN	NaN	NaN	NaN	NaN	NaN	NaN
50	0.49	-714.78882	1624.74316	-1462.25989	-737.80035	1627.21375	-1331.54651	-841.37897	1580.00244	-1480.84607	-859.32227	1582.2207	-1351.41504	-878.56799	1417.95825	-1432.0802	-906.93695	1104.43945	-1434.67188	-758.50146	1343.30029	-1408.74329	-711.43823	1179.78796	-1406.97412	-944.96143	1239.66833	-1347.27087	-775.39606	1379.32629	-1570.38928	-778.76392	1181.86096	-1643.53687	-780.72302	1058.48633	-1656.41321	-773.69568	928.37653	-1658.98132	-780.52148	807.66144	-1634.99048	-788.31171	818.97693	-1689.69031	-784.38715	735.5589	-1685.08655	-835.99353	1366.81677	-1260.59021	-835.49768	1143.01282	-1191.77124	-812.62286	1032.10254	-1179.85632	-785.17804	897.96979	-1178.23962	-742.86902	807.09155	-1212.14502	-778.55396	797.46698	-1172.03723	-747.31659	729.40649	-1181.76917	-724.34442	950.92535	-1531.80078	-761.4231	938.42554	-1297.16797	-891.90894	968.97833	-1505.59851	-912.48376	965.3421	-1357.69958	-754.52734	646.17731	-1581.82971	-745.62323	471.69177	-1537.32117	-805.54681	279.8656	-1554.18665	-847.78717	73.06802	-1522.94678	-895.69733	36.8482	-1493.64197	-703.09735	35.8764	-1478.90063	-763.27563	638.58179	-1264.09033	-696.28735	471.78802	-1283.349	-825.52728	335.09885	-1301.00574	-970.50848	184.12981	-1363.0354	-1017.41101	187.1879	-1423.09668	-894.32599	65.36271	-1366.6145	NaN	NaN	NaN	NaN	NaN	NaN	NaN	NaN	NaN	NaN	NaN	NaN	NaN	NaN	NaN	NaN	NaN	NaN	NaN	NaN	NaN
51	0.5	-701.21234	1624.96545	-1461.86804	-724.37408	1627.50537	-1331.18445	-827.98456	1580.62292	-1480.56213	-845.88403	1582.79346	-1351.02441	-865.81641	1418.65051	-1431.86389	-894.33228	1105.15723	-1435.48022	-745.74158	1343.81506	-1408.40833	-698.84186	1180.125	-1406.94409	-932.26868	1240.41333	-1347.08655	-762.32306	1380.10095	-1569.85022	-763.27527	1183.10779	-1643.64709	-761.98395	1059.57544	-1656.65491	-751.5741	929.8985	-1659.18982	-754.22772	809.50366	-1634.96704	-762.94708	820.27618	-1689.67053	-754.86359	737.73865	-1685.54993	-823.50763	1367.43457	-1260.47583	-824.98541	1143.51038	-1191.66431	-803.15417	1032.4491	-1179.6178	-777.84277	897.86346	-1177.61804	-737.10144	805.93945	-1210.97998	-773.12354	797.27081	-1170.98132	-743.34357	728.39185	-1180.45447	-712.26538	950.57684	-1532.57935	-748.43787	940.0069	-1297.74792	-879.44769	969.12982	-1505.68237	-899.86359	966.45001	-1357.7998	-747.44409	645.42505	-1581.29968	-741.7085	470.73312	-1537.21387	-803.30054	279.69531	-1553.95398	-847.42316	72.83823	-1522.47437	-896.43988	38.15622	-1494.22107	-703.008	35.82521	-1478.76843	-746.40607	641.1933	-1263.56921	-675.43762	475.57971	-1283.88977	-798.58453	332.64941	-1300.8374	-936.35944	174.74503	-1362.27405	-983.54877	174.09772	-1422.04871	-852.73962	61.83574	-1364.08228	NaN	NaN	NaN	NaN	NaN	NaN	NaN	NaN	NaN	NaN	NaN	NaN	NaN	NaN	NaN	NaN	NaN	NaN	NaN	NaN	NaN
52	0.51	-687.60522	1624.9491	-1461.51489	-710.76587	1627.48328	-1330.83643	-814.46814	1581.03223	-1480.14417	-832.46271	1583.26453	-1350.72046	-852.86938	1419.03735	-1431.52649	-881.71332	1105.64404	-1436.2052	-732.98633	1344.1073	-1408.12671	-686.15521	1180.43005	-1406.97937	-919.59552	1240.96155	-1346.95801	-749.39154	1380.74597	-1569.35828	-747.94897	1184.23718	-1643.94165	-743.75354	1060.99731	-1657.44275	-729.17468	931.50708	-1659.42334	-728.43036	811.36621	-1635.74707	-737.17682	821.6275	-1689.50781	-725.34064	739.88074	-1685.77625	-810.8833	1367.72583	-1260.27905	-814.44476	1143.74194	-1191.41833	-793.77197	1032.55896	-1179.16675	-770.51416	897.54108	-1176.98059	-731.1084	804.75305	-1209.90356	-767.59888	796.92706	-1169.91113	-739.2533	727.27881	-1179.21008	-700.13861	950.03674	-1533.26624	-734.6795	941.32849	-1298.07373	-867.01959	969.02917	-1505.65051	-887.27155	967.13232	-1357.86035	-739.88391	644.78174	-1580.80884	-737.67633	469.90207	-1537.27197	-800.9447	279.49973	-1553.73059	-847.39716	73.28139	-1522.54565	-896.61578	38.61897	-1494.13049	-703.0556	35.91512	-1478.85266	-728.82599	643.39471	-1263.11267	-655.17334	479.17865	-1284.59778	-771.80768	330.00421	-1300.42725	-901.33636	164.81155	-1361.28479	-948.63214	160.76997	-1421.4679	-810.40143	58.02407	-1361.5282	NaN	NaN	NaN	-778.18384	1686.2804	-1426.2644	NaN	NaN	NaN	NaN	NaN	NaN	NaN	NaN	NaN	NaN	NaN	NaN	NaN	NaN	NaN
53	0.52	-673.94104	1624.61182	-1461.1615	-697.12622	1627.1637	-1330.55005	-800.96045	1581.20862	-1479.79968	-818.97241	1583.44922	-1350.37268	-840.01367	1419.29163	-1431.18896	-869.08929	1105.89575	-1436.90454	-720.20087	1344.16577	-1407.82813	-673.41736	1180.34766	-1407.00598	-907.05237	1241.35681	-1346.94592	-736.5304	1381.11926	-1568.88965	-732.729	1185.17444	-1644.24683	-725.33618	1062.13464	-1658.16724	-706.60742	933.22797	-1659.82349	-705.14557	812.22986	-1634.5592	-711.06287	823.10236	-1689.1842	-695.96338	742.08075	-1685.61292	-798.04822	1367.599	-1260.09546	-803.729	1143.70667	-1191.1781	-784.36584	1032.29297	-1178.578	-763.09387	896.8811	-1176.26038	-725.29572	803.19897	-1208.83728	-761.91241	796.20764	-1168.93201	-735.17554	725.90863	-1177.89404	-688.00177	949.24146	-1533.71692	-721.97583	942.0047	-1298.38843	-854.64355	968.76135	-1505.54895	-874.70563	967.39838	-1357.83923	-732.07538	644.11334	-1580.35791	-733.57599	469.07733	-1537.41968	-798.68207	279.40414	-1553.62378	-847.25812	73.44275	-1522.39026	-896.38116	39.09863	-1493.97461	-702.93372	35.84498	-1478.84473	-711.05469	645.62164	-1263.11584	-635.49774	482.38251	-1285.41394	-745.09497	327.10172	-1300.00488	-865.22314	154.23941	-1360.11548	-912.20715	146.56026	-1420.14832	-767.44934	54.22408	-1358.74255	NaN	NaN	NaN	-764.28339	1686.39648	-1425.88904	NaN	NaN	NaN	NaN	NaN	NaN	NaN	NaN	NaN	NaN	NaN	NaN	NaN	NaN	NaN
54	0.53	-660.19812	1623.98145	-1460.79858	-683.41217	1626.59265	-1330.20227	-787.43134	1581.11609	-1479.4679	-805.46802	1583.40686	-1350.03247	-827.02881	1419.20056	-1430.74133	-856.46576	1105.84802	-1437.40649	-707.35583	1343.88831	-1407.547	-660.86969	1179.97937	-1407.03418	-894.35693	1241.36194	-1346.96619	-723.81073	1381.24829	-1568.48926	-717.56287	1185.90527	-1644.6814	-707.0119	1063.19031	-1658.98865	-683.9129	934.97339	-1660.09595	-675.53333	814.96826	-1634.51245	-684.66504	824.64734	-1688.75024	-666.90936	744.28552	-1685.30286	-785.19873	1367.16223	-1259.83398	-792.81421	1143.32739	-1190.84412	-774.80341	1031.70923	-1177.95825	-755.57825	895.98761	-1175.43604	-719.0752	801.55695	-1207.55176	-756.12915	795.28967	-1167.90833	-730.58453	724.38818	-1176.81177	-675.54706	948.20892	-1534.10986	-709.16858	942.40106	-1298.57751	-842.32019	968.25385	-1505.30786	-862.11011	967.21967	-1357.73926	-723.86548	643.28619	-1579.90027	-729.42291	468.16537	-1537.6814	-796.6236	279.29236	-1553.62952	-847.13513	73.70547	-1522.33264	-896.14954	39.3338	-1493.61609	-702.76129	35.93641	-1478.87842	-694.03705	647.52313	-1262.86328	-616.44696	485.19003	-1286.22314	-718.62115	323.84744	-1299.51672	-827.9032	143.20538	-1358.56201	-874.5152	132.15703	-1418.64197	-723.80017	50.58538	-1355.95764	NaN	NaN	NaN	-750.20923	1686.3197	-1424.96326	NaN	NaN	NaN	NaN	NaN	NaN	NaN	NaN	NaN	NaN	NaN	NaN	NaN	NaN	NaN
55	0.54	-646.4693	1623.06409	-1460.4696	-669.7583	1625.76025	-1329.89722	-773.84747	1580.69995	-1479.11584	-791.93408	1583.03076	-1349.76099	-814.01208	1418.85132	-1430.224	-843.82874	1105.4906	-1437.74817	-694.51117	1343.34094	-1407.31848	-648.25159	1179.32336	-1407.08057	-881.67615	1241.07739	-1347.00476	-711.10895	1381.08032	-1568.0719	-702.42267	1186.44482	-1645.08337	-688.75024	1064.12134	-1659.82617	-661.06458	936.72931	-1660.40979	-650.63788	816.55945	-1633.73132	-658.16144	826.21692	-1688.23425	-637.75165	746.50525	-1684.4447	-772.26617	1366.42664	-1259.61926	-781.7016	1142.59473	-1190.51501	-765.14038	1030.85034	-1177.31079	-747.9295	894.78784	-1174.54053	-713.28369	799.69702	-1206.73877	-750.0835	794.11725	-1166.80115	-725.78668	722.73602	-1175.76355	-664.26978	946.92719	-1534.33301	-696.11664	942.51837	-1298.55103	-830.10876	967.60089	-1504.83459	-849.50653	966.71802	-1357.41321	-716.00281	642.25793	-1579.51245	-725.32391	467.13528	-1537.91138	-794.68341	279.20374	-1553.71545	-847.00879	73.97095	-1522.29993	-896.12366	39.86433	-1493.56628	-702.54919	35.86643	-1478.8678	-677.51947	648.59766	-1262.54407	-598.08484	487.62949	-1286.99402	-692.14044	320.24857	-1298.65918	-789.93903	132.55757	-1356.60803	-835.95007	117.94398	-1416.79504	-679.72937	47.46849	-1353.07654	NaN	NaN	NaN	NaN	NaN	NaN	NaN	NaN	NaN	NaN	NaN	NaN	NaN	NaN	NaN	NaN	NaN	NaN	NaN	NaN	NaN
56	0.55	-632.67352	1621.8894	-1460.15491	-656.0274	1624.63953	-1329.61218	-760.28882	1580.07605	-1478.89343	-778.29749	1582.38477	-1349.39282	-801.0094	1418.27283	-1429.76404	-831.17218	1104.77332	-1437.90698	-681.61713	1342.48547	-1407.09692	-635.39899	1178.53772	-1407.14111	-868.94342	1240.43494	-1347.09973	-697.98505	1380.5332	-1567.33838	-687.25281	1186.72815	-1645.46777	-670.43872	1064.8595	-1660.60791	-638.31024	938.5575	-1660.62366	-620.98254	819.76575	-1633.46936	-631.62805	828.02979	-1687.57507	-608.76141	748.79187	-1683.22693	-759.32056	1365.27563	-1259.37549	-770.50537	1141.59265	-1190.15979	-755.31073	1029.70361	-1176.69104	-740.14722	893.36975	-1173.63196	-706.31897	797.74884	-1205.13525	-743.88525	792.7384	-1165.6073	-720.86072	720.76135	-1174.59338	-652.24554	945.53589	-1534.40881	-682.99341	942.31299	-1298.39209	-818.00348	966.78375	-1504.19348	-836.80975	965.93036	-1356.86475	-708.46173	641.09491	-1578.88721	-721.11975	466.13428	-1538.19617	-792.60028	279.14926	-1553.75989	-846.84161	74.40749	-1522.20544	-896.1145	40.51893	-1493.38721	-702.53064	35.87175	-1478.8811	-661.1604	650.09589	-1261.97498	-580.49652	489.56134	-1287.65356	-665.51605	316.31509	-1298.09802	-751.28326	121.8863	-1354.26953	-796.07117	103.88677	-1414.28247	-635.21149	44.98096	-1350.34009	NaN	NaN	NaN	NaN	NaN	NaN	NaN	NaN	NaN	NaN	NaN	NaN	NaN	NaN	NaN	NaN	NaN	NaN	NaN	NaN	NaN
